<?xml version="1.0" encoding="UTF-8" standalone="no"?>

<svg
  xmlns:dc="http://purl.org/dc/elements/1.1/"
  xmlns:cc="http://creativecommons.org/ns#"
  xmlns:rdf="http://www.w3.org/1999/02/22-rdf-syntax-ns#"
  xmlns:svg="http://www.w3.org/2000/svg"
  xmlns="http://www.w3.org/2000/svg"
  id="svg402"
  version="1.1"
  height="904"
  width="1960">
  <metadata
    id="metadata408">
    <rdf:RDF>
      <cc:Work
        rdf:about="">
        <dc:format>image/svg+xml</dc:format>
        <dc:type
          rdf:resource="http://purl.org/dc/dcmitype/StillImage" />
        <dc:title></dc:title>
      </cc:Work>
    </rdf:RDF>
  </metadata>
  <defs
    id="defs406" />
  <g
    id="g484">
    <path
      style="fill:#3c37cc; stroke:none;"
      d="M0 0L0 210C5.10346 205.323 8.58262 198.646 12.5756 193C22.0604 179.588 30.8879 165.668 40 152L83.3333 87C90.5001 76.2499 99.2541 65.5504 105 54C97.7169 55.0756 90.9162 58.2548 84 60.6559C71.0339 65.1572 58.0473 69.7545 45 74C57.4635 58.5381 69.4976 42.7068 81.6505 27C88.4577 18.202 96.4494 9.64844 102 0L0 0z"
      id="path2" />
    <path
      style="fill:#3c37cc;stroke:none"
      d="m 105,132 c 10.837,-1.459 22.391,-4.419 32.985,-7.134 4.472,-1.146 8.397,-3.23 13.015,-3.866 -2.627,5.633 -7.706,9.442 -11.83,14 -8.253,9.121 -16.629,18.109 -25.131,27 -25.4359,26.603 -49.642,54.397 -75.0784,81 -8.8255,9.23 -17.5627,18.531 -26.1304,28 -3.77687,4.174 -8.90427,7.919 -11.5123,13 C -0.41039,287.367 2.35593e-4,291.336 0,295 v 21 78 c 11.4717,-8.081 21.0821,-20.082 31,-30 21.5158,-21.516 42.4898,-43.49 64,-65 l 29,-29 c 4.912,-4.912 11.035,-9.642 14,-16 -8.277,0.847 -16.494,5.807 -24,9.231 -13.248,6.044 -26.5585,12.18 -40,17.769 48.286,-48.286 98.639,-94.761 148,-141.961 13.977,-13.364 28.317,-26.361 42,-40.039 5.064,-5.0619 34,-29.25 34,-29.25 0,0 -36.612,17.4124 -45,20.25 C 268.553,66.4839 288.579,45.0247 306.2,23 312.213,15.4843 318.897,8.16699 324,0 H 268 C 260.626,0 249.963,-1.95264 243,0.603394 237.061,2.78375 231.399,9.62286 227,14.0008 218.134,22.8244 208.837,31.1666 200,40 179.682,60.3106 158.766,80.1039 138,99.9606 127.189,110.298 114.084,120.122 105,132 Z"
      id="path6" />
    <path
      style="fill:#3c37cc;stroke:none"
      d="m 822,47 c 0,0 -26.847,33.9131 -39.884,51 -18.826,24.673 -37.867,49.17 -56.489,74 -64.431,85.907 -126.527,173.35 -185.63,263 -22.314,33.846 -43.756,68.345 -64.794,103 -5.263,8.669 -10.584,17.306 -15.803,26 -2.489,4.146 -5.4,13 -5.4,13 0,0 24.531,-16.676 36,-25.116 15.537,-11.432 31.885,-21.897 47,-33.884 -14.229,34.177 -31.243,67.355 -46.691,101 -21.287,46.359 -42.315,92.869 -64.09,139 -10.346,21.919 -20.415,43.973 -30.528,66 -3.609,7.862 -10.691,28 -10.691,28 0,0 26.684,-19.845 41,-28 -7.97,27.677 -26.396,52.198 -34,80 h 155 c 5.123,-18.732 15.059,-37.087 22.576,-55 16.477,-39.266 34.026,-78.31 49.424,-118 -7.474,2.035 -14.563,8.688 -21,13.001 -14.056,9.417 -28.589,18.691 -42,28.999 11.458,-27.521 25.978,-54.029 38.702,-81 25.432,-53.907 50.219,-108.034 77.556,-161 11.285,-21.864 23.323,-43.368 35.051,-65 5.561,-10.259 12.2,-20.216 16.691,-31 -7.763,1.033 -14.621,7.414 -21,11.667 -13.666,9.11 -27.384,18.148 -41,27.333 3.629,-13.295 9.679,-26.127 14.576,-39 l 26,-68 c 26.251,-69.01 51.813,-138.364 79.025,-207 10.907,-27.51 21.454,-55.243 31.718,-83 C 817.21083,66.408109 822,47 822,47 Z"
      id="path40" />
    <path
      style="fill:#3c37cc;stroke:none"
      d="m 1681,504 c 7.66,-0.177 15.9,-8.263 22,-12.576 14.22,-10.057 28.78,-20.953 44,-29.424 -21.63,51.947 -48.95,101.6 -71.86,153 -5.55,12.443 -11.76,24.616 -17.45,37 -3.78,8.234 -7.66,14.722 -7.69,24 7.37,-3.12 13.77,-9.425 20,-14.4 9.94,-7.939 20.09,-15.614 30,-23.6 -4.42,18.651 -13.36,36.992 -19.95,55 -13.42,36.689 -26.79,73.409 -40.47,110 -5.61,14.978 -11.14,29.982 -16.63,45 -2.96,8.094 -7.95,25 -7.95,25 0,0 6.44,-7.737 9,-12 5.38,-8.974 10.71,-17.977 16.01,-27 19.75,-33.62 39.26,-67.38 59,-101 21.75,-37.034 43.29,-74.167 65.39,-111 11.36,-18.942 24.4516,-37.25124 34.68,-57 6.8509,-13.22756 11.81,-27.489 17.78,-41 10.97,-24.822 22.33,-49.466 33.92,-74 15.47,-32.742 28.84,-65.996 41.27,-100 7.98,-21.798 18.95,-67 18.95,-67 0,0 -19.1,15.376 -27,22.989 -5.1,4.916 -10.91,9.096 -15.91,14.1 -10.33,10.329 -19.76,21.565 -30.09,31.911 -7.17,7.178 -23,22 -23,22 0,0 2.83,-21.547 4.59,-32 2.79,-16.657 5.39,-33.342 8.16,-50 9.05,-54.271 26.52,-163 26.52,-163 L 1864,64 c -21.233,30.782175 -33.7395,74.44027 -47.15,106 -32.73,76.841 -62.98,154.792 -94.84,232 -9.75,23.632 -19.25,47.368 -29,71 -2.87,6.964 -5.92,13.944 -8.55,21 -1.26,3.395 -1.67,6.81 -3.46,10 z"
      id="path50" />
    <path
      style="fill:#3c37cc;stroke:none"
      d="m 114,337 c 0,0 13.20087,-3.2818 22.09,-5.04 C 144.97913,330.2018 169,324 169,324 c 0,0 -27.26,32.263 -40.729,48 -28.2828,33.044 -56.694,65.975 -85.0002,99 l -27.5416,32 c -4.761,5.562 -15.65999308,19.13258 -15.65999308,19.13258 L 0,533 c 0,0 12.0901,-4.216 18,-6.599 C 26.3114,523.05 35.0754,520.181 43,516 34.6144,528.046 23.7967,539.02 14.0502,550 9.70895,554.891 0.037037,566.90625 0.037037,566.90625 0.037037,566.90625 0,578.091 0,583 v 34 114 C 8.62454,722.804 15.552,712.273 23.0008,703 37.4606,684.998 51.7877,666.859 66.4244,649 115.222,589.46 163.109,529.112 211.2,469 l 54.6,-68 13.6,-17 c 3.278,-4.098 6.795,-7.689 7.6,-13 -7.432,3.207 -14.081,8.223 -21,12.399 -15.759,9.511 -31.375,19.293 -47,29.025 -8.493,5.289 -16.933,11.338 -26,15.576 4.942,-11.468 12.311,-22.206 18.576,-33 10.417,-17.95 20.681,-35.995 31.003,-54 31.925,-55.687 63.301,-111.779 96.024,-167 13.914,-23.479 27.244,-47.323 40.818,-71 C 384.872,93.4926 404.75,61.25 404.75,61.25 394.72268,68.394189 374.92845,87.138341 367,95 c -16.997,16.97 -34.638,33.359 -52,49.961 -43.25,41.356 -86.212,83.16 -130,123.95 -14.491,13.498 -28.51,27.502 -43,41 C 132.741,318.536 114,337 114,337 Z"
      id="path56" />
    <path
      style="fill:#3c37cc;stroke:none"
      d="m 1959,362 c -12.85,27.128 -24.97,54.634 -37.31,82 -6.2,13.765 -18.69,43 -18.69,43 0,0 38.4673,-20.34372 44,-23 -20.34,52.445 -39.57,105.362 -59.42,158 -5.63,14.908 -11.01,29.949 -16.24,45 -2.13,6.158 -5.34,20 -5.34,20 0,0 26.18,-20.665 39,-31 -0.37,5.621 -3.41,10.605 -4.96,16 -3.28,11.448 -7.18,22.604 -10.69,34 -7.2,23.368 -14.63,46.677 -22,70.004 -2.88,9.111 -4.93,18.698 -8.1,27.71 -3.97,11.292 -7.34,22.628 -10.71,34.116 -2.27,7.763 -5.52,13.83 -5.54,22.17 4.25,-4.543 7,-10.669 10.2,-16 6.17,-10.278 12.21,-20.634 18.22,-31 16.89,-29.094 34.03,-58.065 51.18,-87 8.49,-14.317 16.96,-28.648 25.39,-43 3.75,-6.389 9.83,-13.773 11.59,-21 1.44,-5.877 0.42,-12.976 0.42,-19 V 606 487 400 375 c 0,-4.26 0.66,-9.042 -1,-13 z"
      id="path202" />
    <path
      style="fill:#3c37cc;stroke:none"
      d="m 903,773 c 0,0 11.798,-5.915 17,-9.884 10.552,-8.051 20.727,-17.096 32,-24.116 -5.681,9.771 -9.594,20.731 -14.309,31 -6.907,15.044 -14.092,29.957 -21,45 -13.709,29.857 -30.061,58.665 -42.691,89 h 91 24 c 2.84,0 7.022,0.702 9.49,-1.028 2.11,-1.477 2.83,-4.7 3.7,-6.972 1.91,-4.975 3.71,-9.984 5.5,-15 6.69,-18.734 13.71,-37.387 20.73,-56 20.82,-55.197 40.48,-110.837 61.39,-166 6.55,-17.282 12.78,-34.683 19.24,-52 3.58,-9.593 8.86,-19.631 8.95,-30 -5.55,4.249 -9.63,10.482 -13.88,16 -6.2,8.045 -12.55,15.969 -18.77,24 -9.33,12.059 -18.93,23.917 -28.23,36 -4.51,5.852 -9.81,11.362 -13.12,18 0.26,-8.628 4.59,-16.835 6.96,-25.001 4.94,-17.052 11.06,-33.949 16,-51 7.96,-27.464 17.24,-54.525 25.69,-81.999 5.79,-18.801 10.57,-38.163 17.1,-56.715 5.82,-16.556 10.77,-33.293 15.71,-50.115 C 1128.67,395.218 1136,373 1136,373 l -19.19,25 c 0,0 -28.74,44.68 -43.12,67 -28.24,43.842 -57.48,87.125 -84.087,132 -15.16,25.57 -28.784,51.877 -42.912,78 -12.12,22.411 -24.249,45.32 -33.691,69 -3.619,9.076 -10,29 -10,29 z"
      id="path218" />
    <path
      style="fill:#3c37cc;stroke:none"
      d="m 180,904 h 75 19 c 2.579,-10e-4 6.119,0.546 8.362,-1.028 5.078,-3.563 7.827,-15.389 10.217,-20.972 7.59,-17.738 15.483,-35.35 23.281,-53 19.424,-43.964 38.576,-88.035 58,-132 C 384.632,672.619 406,623 406,623 l -61.13,68 c 0,0 -84.097,100.097 -122.294,153 -14.172,19.627 -30.59,38.959 -42.576,60 z"
      id="path254" />
    <g
      id="g423">
      <path
        id="path22"
        d="m 1455,339 c 0,0 22.28,-19.843 34,-28 -31.48,81.613 -59.01,164.846 -89.05,247 -9.25,25.284 -17.95,50.785 -27.37,76 -3.11,8.297 -5.9,16.706 -9,25 -2.3,6.146 -5.24,12.39 -5.58,19 8.34,-3.888 14.54,-13.544 21,-20 15.18,-15.182 29.82,-30.822 45,-46 -7.47,27.384 -18.79,54.255 -28.31,81 -16.34,45.923 -32.04,92.077 -48.38,138 -8.5,23.865 -19.6,48.326 -25.31,73 h 39 c 4.2,0 11.89,1.461 15.5,-1.028 2.88,-1.983 3.76,-6.895 4.92,-9.972 l 9.77,-26 c 12.66,-33.287 24.96,-66.712 37.62,-100 45.05,-118.47 88.88,-237.41 133.61,-356 13.82,-36.639 27.68,-73.272 41.26,-110 l 12,-32 c 2.32,-6.276 5.32,-19 5.32,-19 0,0 -14.82,11.747 -22,17.754 -13.37,11.182 -26.69,22.423 -40,33.67 -6.32,5.34 -12.74,12.722 -20,16.576 1.81,-7.765 6.14,-15.476 8.95,-23 6.5,-17.373 13.06,-34.737 19.85,-52 20.73,-52.783 40.46,-105.995 60.62,-159 6.98,-18.3417 14.08,-36.6387 21,-55 3.59,-9.5197 8.23,-19.09241 10.58,-29 h -23 c -3.2,0 -7.78,-0.779846 -10.61,1.02777 -5.17,3.29804 -7.85,13.71293 -10.7,18.97223 -8.92,16.4979 -17.55,33.2226 -25.94,50 -31.2,62.4 -64.8,123.604 -96,186 -14.146,30.20095 -29.4117,51.73473 -38.75,83 z"
        style="fill:#3c37cc;stroke:none" />
      <path
        id="path26"
        d="m 1641,185 c 0,0 14.6,-7.939 21,-12.341 15.57,-10.713 30.48,-23.455 47,-32.659 -13.39,34.721 -25.28,70.047 -38.05,105 -25.43,69.585 -50.7,139.239 -75.64,209 -1.73,4.846 -4.38,9.226 -6.24,14 -11.48,29.412 -22.14,59.267 -32.76,89 -4.37,12.219 -13.31,37 -13.31,37 l 16,-21 c 0,0 23.78,-39.302 35.6,-59 35.87,-59.784 72.33,-119.216 108.2,-179 10.26,-17.105 20.57,-34.158 31.25,-51 4.89,-7.704 14.95,-25 14.95,-25 l -35,20 c 0,0 20.35,-44.241 30.31,-66 18.13,-39.605 35.86,-79.395 54,-119 9.75,-21.3014 19.75,-42.5267 29.11,-64 4.21,-9.628 10.73,-19.604 12.58,-30 h -95 -26 c -3.38,0 -8.46,-0.923584 -11.58,0.603394 -3.54,1.733766 -4.88,8.965026 -6.08,12.396606 -3.94,11.3515 -8.19,22.6057 -12.01,34 -10.19,30.4742 -21.25,60.724 -32.02,91 -5.48,15.399 -16.31,47 -16.31,47 m 259,-49 c 0,0 8.28,-7.819 12.07,-12 8.08,-8.906 16.02,-17.946 23.93,-27 -2.7,11.675 -7.13,22.557 -10.65,34 -7.57,24.604 -15.59,49.153 -22.81,73.83 -3.7,12.679 -10.54,38.17 -10.54,38.17 0,0 7.56,-9.997 10.42,-15 6.64,-11.602 12.98,-23.378 19.58,-35 8.87,-15.604 17.67,-31.269 26.31,-47 3.62,-6.596 9.22,-13.708 11.19,-21 1.18,-4.362 0.5,-9.517 0.5,-14 V 85 0 c -4.49,0 -14.81,-1.92285 -18.14,1.60339 -1.97,2.08606 -1.7,5.54242 -2.61,8.11109 -3.18,9.03742 -6.01,17.93982 -8.71,27.11582 -1.99,6.788 -5.1,13.3637 -7.19,20.1697 -3.73,12.1003 -6.89,24.7657 -11.1,36.7145 -3.17,9.0375 -6.01,17.9395 -8.71,27.1155 -1.58,5.388 -3.54,15.17 -3.54,15.17 z"
        style="fill:#3c37cc;stroke:none" />
      <path
        id="path280"
        d="m 1829,629 c 0,0 -51.2141,68.69374 -74.69,104.5 -20.0314,30.55258 -38.7226,62.00565 -56.36,94 -9.2838,16.84091 -15.73,35.127 -26,51.5 -5.04,8.033 -11.59,16.117 -14.95,25 h 80 22 c 2.83,0 6.96,0.719 9.57,-0.603 2.61,-1.328 2.65,-5.479 3.43,-7.973 2.71,-8.642 4.87,-17.612 7.21,-26.374 6.42,-24.03 13.17,-47.947 19.49,-72.011 2.64,-10.028 8.3,-31.039 8.3,-31.039 0,0 -11.23,9.224 -16,14 -11.76,11.768 -22.42,25.12 -35,36 8.2844,-37.49512 64.3549,-149.45989 73,-187 z"
        style="fill:#3c37cc;stroke:none" />
    </g>
    <g
      id="g432">
      <g
        id="g418">
        <g
          id="g412">
          <path
            id="path10"
            d="M 352.52984,305.25166 C 414.06755,263.92223 437.73433,249.14521 472,232 c -2.549,4.803 -7.087,8.796 -10.586,13 -29.70468,35.63503 -59.3424,71.32579 -89,107 -72.144,86.685 -144.243,173.406 -216.494,260 -26.108,31.291 -52.079,62.695 -78.1669,94 L 55.2469,733 C 51.3917,737.626 46.609,742.093 45,748 66.3173,740.744 85.6993,728.253 107,721 82.5692,751.309 58.1426,781.619 33.8002,812 L 11.1998,840 C 7.76011,844.3 2.92411,848.833 0.857253,854 -1.0207,858.695 0,865.031 0,870 v 34 h 84 22 c 2.938,0 6.874,0.627 9.482,-1.028 3.006,-1.907 4.928,-6.087 6.851,-8.972 4.037,-6.054 8.293,-11.95 12.334,-18 14.121,-21.143 28.879,-41.858 43,-63 40.956,-61.322 82.18,-122.793 124.757,-183 13.738,-19.426 26.947,-39.27 40.246,-59 5.504,-8.166 16.33,-27 16.33,-27 0,0 -20.081,15.464 -29,22.92 -22.454,18.769 -43.997,40.371 -68,57.08 43.489,-58.676 88.771,-116.146 133.349,-174 50.22,-65.179 99.554,-131.054 150.075,-196 27.85,-35.801 54.805,-72.302 82.786,-108 8.28,-10.564 24.441,-32 24.441,-32 L 665,95 c 0,0 -12.848,4.344 -19,7 -15.065,6.504 -30.239,15.461 -46,20 17.461,-25.8781 35.399,-51.5113 53.424,-77 10.152,-14.355 23.12414,-29.1071 30.64214,-45 L 573.78257,0.2340335 C 481.93356,116.07941 432.1954,168.60006 352.52984,305.25166 Z"
            style="fill:#3c37cc;stroke:none" />
          <path
            id="path14"
            d="m 843,115 c 0,0 12.98,-4.182 19,-7.576 7.391,-4.165 15.169,-8.1637 23,-11.424 -8.369,17.905 -20.266,34.573 -29.691,52 -17.441,32.248 -31.908,65.998 -45.509,100 -5.291,13.227 -10.432,26.555 -15.143,40 -2.193,6.256 -5.657,19 -5.657,19 0,0 14.687,-15.229 19.576,-22 13.818,-19.137 27.978,-38.051 42.054,-57 C 886.48,179.74 922.215,131.393 957.884,83 970.182,66.3148 982.441,49.5841 994.873,33 1002.99,22.1691 1011.84,11.4899 1019,0 h -71 -21 c -3.099,0 -6.969,-0.574768 -9.907,0.603394 C 913.604,2.00317 911.643,6.03906 909.667,9 L 897,28 C 883.969,47.5468 870.952,67.0258 858.576,87 853.284,95.5407 843,115 843,115 m -9,238 43,-14 c 0,0 -26.737,38.72 -40.026,58 -28.135,40.821 -56.138,81.746 -83.641,123 -17.178,25.768 -34.692,51.319 -52.003,77 -8.465,12.558 -25.33,38 -25.33,38 0,0 23.324,-11.594 33,-17.4 24.003,-14.401 48.658,-28.154 72,-43.6 -12.968,33.425 -28.309,66.11 -42.576,99 -22.095,50.938 -43.753,102.062 -65.848,153 -11.243,25.918 -23.358,51.662 -33.576,78 h 96 27 c 3.691,0 9.193,1.004 12.61,-0.603 2.967,-1.396 4.306,-5.722 5.814,-8.397 4.084,-7.24 7.684,-14.729 11.715,-22 11.988,-21.627 23.049,-43.881 34.108,-66 4.965,-9.931 14.753,-32 14.753,-32 0,0 -17.063,10.375 -25,15.667 -14.666,9.777 -29.388,19.476 -44,29.333 10.562,-25.368 25.618,-49.827 38.691,-74 20.781,-38.424 40.219,-77.574 61,-116 57.492,-106.304 111.125,-214.697 168.619,-321 26.84,-49.637 53.56,-99.597 78.94,-150 7.1,-14.109 14.76,-27.96 22.01,-42 3.2,-6.198 8.74,-19 8.74,-19 0,0 -10.37,5.389 -15,9.247 l -24,20 -60,49.833 c -11.16,9.308 -22.01,19.723 -34,27.92 24.98,-47.467 51.73,-94.158 77.86,-141 11.69,-20.9548 25.65,-41.9769 35.14,-64 h -34 c -3.89,0 -10.05,-1.14783 -13.48,1.02777 -2.44,1.54901 -4.02,4.67682 -5.66,6.97223 l -10.72,15 c -12.61,17.6016 -25.05,35.326 -37.56,53 -43.705,61.74 -87.382,123.516 -131.44,185 -14.761,20.6 -29.256,41.389 -44,62 -6.249,8.737 -19.14,30 -19.14,30 z"
            style="fill:#3c37cc;stroke:none" />
        </g>
        <path
          style="fill:#3c37cc;stroke:none"
          d="m 1177,106 c 4.28,-3.077 7.35,-7.2402 11.01,-11 7.44,-7.6247 14.82,-15.2108 22.08,-23 18.26,-19.6011 36.97,-39.0611 55.91,-58 -26.66,68.7345 -60.3,135.109 -93.25,201 -8.93,17.864 -17.07,36.137 -26,54 -3.27,6.554 -8.75,23 -8.75,23 0,0 12.19,-12.659 18.09,-19 10.14,-10.903 20.16,-21.893 30.08,-33 40.51,-45.375 77.85,-93.064 115.25,-141 16.99,-21.7719 34.13,-43.4351 51.38,-65 8.62,-10.7758 19.92,-21.702 26.2,-34 h -114 -30 c -3.62,0 -9.41,-1.06628 -12.58,1.02777 -4.37,2.89014 -6.57,12.31503 -8.57,16.97223 -6.32,14.7106 -12.9,29.3109 -19.27,44 -4.21,9.6855 -8.43,19.3949 -12.81,29 -2.14,4.6982 -4.77,15 -4.77,15 m 11,330 c 0,0 9.8495,-5.69435 12,-7.576 7.53,-6.539 14.7,-13.542 22,-20.334 18.87,-17.55 37.89,-34.969 57,-52.26 7.59,-6.866 14.63,-14.935 23,-20.83 -13.86,25.991 -23.86,54.898 -35.42,82 -21.92,51.368 -44.08,102.632 -66,154 -12.1,28.352 -24.27,56.673 -36.43,85 -5.66,13.197 -17.15,42 -17.15,42 0,0 13.65,-8.872 19,-13.961 12.47,-11.868 25.77,-22.913 38,-35.039 -7.91,23.378 -18.57,46.183 -27.99,69 -14.68,35.579 -28.54,71.509 -43.43,107 -7.11,16.925 -13.92,33.977 -20.78,51 -3.7,9.185 -8.51,18.337 -10.8,28 h 113 32 c 4,0 10.02,1.107 13.72,-0.603 3.39,-1.565 4.27,-7.231 5.47,-10.397 3.77,-9.959 7.23,-20.041 11,-30 12.56,-33.166 24.57,-66.601 36.5,-100 2.99,-8.366 6.21,-16.657 9.26,-25 1.67,-4.564 3.05,-14 3.05,-14 0,0 -22.76,20.664 -34,30.83 -18.88,17.079 -38,34.168 -56,52.17 4.28,-14.983 12.29,-29.792 18.69,-44 9.41,-20.878 18.19,-42.052 27.45,-63 28.79,-65.154 57.33,-130.486 85.28,-196 11.28,-26.42 23.09,-52.607 34.43,-79 2.73,-6.351 5.5,-12.678 8.29,-19 1.79,-4.048 2.86,-12 2.86,-12 0,0 -12.97,10.344 -19,15.576 -13.56,11.773 -27.3,23.73 -40,36.424 3.43,-11.893 11.23,-22.957 16.75,-34 11.87,-23.739 23.82,-47.425 35.99,-71 33.39,-64.692 65.95,-129.888 98.51,-195 12.53,-25.076 25.46,-49.926 38,-75 6.12,-12.2521 14.71,-23.8812 14.75,-38 -11.6,8.1653 -21.63,19.2521 -32,28.9105 -11.92,11.0971 -24.37,21.6947 -36,33.0895 9.48,-22.7773 23.84,-44.4537 35.86,-66 5.11,-9.1642 12.18,-18.9261 15.14,-29 h -74 -20 c -2.71,0.0012207 -6.21,-0.497864 -8.61,1.02777 -3.12,1.979 -4.96,6.8902 -6.79,9.97223 -4.52,7.6385 -9.03,15.2997 -13.45,23 -15.18,26.4462 -30.72,52.7054 -46.16,79 -41.94,71.416 -83.61,142.931 -124.41,215 -14.07,24.838 -27.97,49.795 -41.36,75 -5.63,10.593 -17.22,33 -17.22,33 z"
          id="path18" />
      </g>
      <path
        id="path238"
        d="m 1643,545 c 0,0 -24.12,28.671 -36.08,43 -24.44,29.291 -48.74,58.694 -73.17,88 l -34.83,42 c -6.15,7.414 -17.92,23 -17.92,23 0,0 10.21,-3.099 15,-5.691 9.16,-4.956 18.38,-10.303 28,-14.309 -22.44,42.653 -45.15,85.174 -67.26,128 -9.41,18.239 -20.85,36.049 -28.74,55 h 74 19 c 2.52,-10e-4 6.14,0.576 8.3,-1.028 2.04,-1.508 2.91,-4.775 3.96,-6.972 2.84,-5.96 5.53,-11.994 8.28,-18 l 28.69,-63 c 7,-15.332 13.79,-30.779 21.03,-46 1.57,-3.313 10.2,-24.589 10.2,-24.589 0,0 -17.21,13.786 -19.46,15.59 -13.38,10.743 -27.61,21.139 -40,32.999 6.79,-20.073 16.38,-39.462 24.58,-59 17.76,-42.343 35.89,-84.553 53.41,-127 6.2,-15.033 12.45,-30.055 18.86,-45 2.01,-4.695 4.15,-17 4.15,-17 z"
        style="fill:#3c37cc;stroke:none" />
      <path
        id="path340"
        d="m 1960.0496,786.64645 c 0,0 -34.5596,52.28955 -51.0996,78.35355 l -16,25 c -2.91,4.577 -6.29,8.798 -7.95,14 h 75 v -82 -23 c 0,-3.983 0.05,-12.35355 0.05,-12.35355 z"
        style="fill:#3c37cc;stroke:none" />
    </g>
  </g>
</svg>
